<svg width="8" height="9" viewBox="0 0 8 9" fill="none" xmlns="http://www.w3.org/2000/svg">
<path d="M4.08378 1.61773C5.0635 1.61773 5.17952 1.6214 5.56655 1.63904C5.79925 1.64189 6.02975 1.68462 6.248 1.76537C6.40628 1.82641 6.55003 1.91992 6.66998 2.03988C6.78993 2.15983 6.88344 2.30357 6.94448 2.46185C7.02524 2.68011 7.06797 2.9106 7.07081 3.1433C7.08829 3.53033 7.09213 3.64635 7.09213 4.62607C7.09213 5.60579 7.08846 5.72181 7.07081 6.10884C7.06797 6.34154 7.02524 6.57203 6.94448 6.79029C6.88344 6.94857 6.78993 7.09231 6.66998 7.21227C6.55003 7.33222 6.40628 7.42573 6.248 7.48677C6.02975 7.56752 5.79925 7.61025 5.56655 7.6131C5.1797 7.63057 5.06368 7.63442 4.08378 7.63442C3.10389 7.63442 2.98787 7.63075 2.60101 7.6131C2.36831 7.61025 2.13782 7.56752 1.91956 7.48677C1.76128 7.42573 1.61754 7.33222 1.49759 7.21227C1.37763 7.09231 1.28413 6.94857 1.22308 6.79029C1.14233 6.57203 1.0996 6.34154 1.09675 6.10884C1.07928 5.72181 1.07544 5.60579 1.07544 4.62607C1.07544 3.64635 1.07911 3.53033 1.09675 3.1433C1.0996 2.9106 1.14233 2.68011 1.22308 2.46185C1.28413 2.30357 1.37763 2.15983 1.49759 2.03988C1.61754 1.91992 1.76128 1.82641 1.91956 1.76537C2.13782 1.68462 2.36831 1.64189 2.60101 1.63904C2.98804 1.62157 3.10407 1.61773 4.08378 1.61773ZM4.08378 0.956543C3.08782 0.956543 2.96236 0.960737 2.57096 0.978559C2.26641 0.984617 1.9651 1.04228 1.67983 1.1491C1.43512 1.2413 1.21347 1.38578 1.03036 1.57247C0.843499 1.75565 0.69889 1.97743 0.606633 2.2223C0.499816 2.50756 0.442153 2.80888 0.436095 3.11342C0.418622 3.50447 0.414429 3.62993 0.414429 4.6259C0.414429 5.62187 0.418622 5.74732 0.436445 6.13872C0.442502 6.44327 0.500166 6.74458 0.606983 7.02985C0.699137 7.27469 0.843625 7.49646 1.03036 7.67967C1.21357 7.86641 1.43534 8.01089 1.68018 8.10305C1.96545 8.20986 2.26676 8.26753 2.57131 8.27359C2.96271 8.29106 3.08764 8.2956 4.08413 8.2956C5.08063 8.2956 5.20556 8.29141 5.59696 8.27359C5.9015 8.26753 6.20282 8.20986 6.48808 8.10305C6.73176 8.00859 6.95304 7.86432 7.13778 7.67947C7.32251 7.49461 7.46664 7.27324 7.56094 7.0295C7.66775 6.74423 7.72541 6.44292 7.73147 6.13837C7.74895 5.74732 7.75314 5.62187 7.75314 4.6259C7.75314 3.62993 7.74895 3.50447 7.73112 3.11308C7.72507 2.80853 7.6674 2.50721 7.56059 2.22195C7.46843 1.97711 7.32394 1.75534 7.13721 1.57212C6.95399 1.38539 6.73222 1.2409 6.48739 1.14875C6.20212 1.04193 5.9008 0.984267 5.59626 0.97821C5.20521 0.960737 5.07975 0.956543 4.08378 0.956543Z" fill="white"/>
<path d="M4.0845 2.74268C3.71182 2.74268 3.34751 2.85319 3.03764 3.06024C2.72776 3.26729 2.48625 3.56158 2.34363 3.90589C2.20101 4.2502 2.1637 4.62907 2.2364 4.99459C2.30911 5.3601 2.48857 5.69585 2.7521 5.95938C3.01562 6.2229 3.35137 6.40237 3.71689 6.47507C4.08241 6.54778 4.46128 6.51046 4.80559 6.36784C5.1499 6.22523 5.44419 5.98371 5.65124 5.67384C5.85829 5.36397 5.9688 4.99966 5.9688 4.62698C5.9688 4.12723 5.77027 3.64795 5.4169 3.29457C5.06352 2.9412 4.58424 2.74268 4.0845 2.74268ZM4.0845 5.85009C3.84259 5.85009 3.60611 5.77836 3.40497 5.64396C3.20383 5.50956 3.04706 5.31854 2.95448 5.09504C2.86191 4.87155 2.83769 4.62562 2.88488 4.38836C2.93208 4.1511 3.04857 3.93316 3.21962 3.7621C3.39068 3.59105 3.60862 3.47455 3.84588 3.42736C4.08314 3.38017 4.32907 3.40439 4.55256 3.49696C4.77606 3.58954 4.96708 3.74631 5.10148 3.94745C5.23588 4.14859 5.30762 4.38507 5.30762 4.62698C5.30762 4.95137 5.17875 5.26247 4.94937 5.49185C4.71999 5.72123 4.40889 5.85009 4.0845 5.85009Z" fill="white"/>
<path d="M6.04286 3.1077C6.28605 3.1077 6.48318 2.91056 6.48318 2.66737C6.48318 2.42419 6.28605 2.22705 6.04286 2.22705C5.79968 2.22705 5.60254 2.42419 5.60254 2.66737C5.60254 2.91056 5.79968 3.1077 6.04286 3.1077Z" fill="white"/>
</svg>
