<svg width="7" height="6" viewBox="0 0 7 6" fill="none" xmlns="http://www.w3.org/2000/svg">
<path d="M6.11224 0.991254C5.88527 1.09213 5.64569 1.15518 5.3935 1.19301C5.64569 1.04169 5.84744 0.802112 5.9357 0.512094C5.69612 0.650799 5.43132 0.751674 5.14131 0.814722C4.91434 0.575142 4.58649 0.423828 4.23343 0.423828C3.55251 0.423828 2.9977 0.978645 2.9977 1.65956C2.9977 1.76043 3.01031 1.8487 3.03553 1.93696C2.01416 1.88653 1.09367 1.39476 0.475805 0.638189C0.374929 0.827331 0.311882 1.02908 0.311882 1.25605C0.311882 1.68477 0.526243 2.06306 0.866698 2.29003C0.664947 2.27742 0.475805 2.22698 0.299272 2.13872V2.15132C0.299272 2.75658 0.727994 3.26096 1.29542 3.37444C1.19454 3.39966 1.08106 3.41227 0.967574 3.41227C0.891917 3.41227 0.803651 3.39966 0.727994 3.38705C0.891917 3.87882 1.34586 4.2445 1.88806 4.2445C1.45934 4.57234 0.929745 4.77409 0.34971 4.77409C0.248834 4.77409 0.147959 4.77409 0.0596924 4.76149C0.614509 5.11455 1.25759 5.3163 1.96372 5.3163C4.24604 5.3163 5.49437 3.42488 5.49437 1.78565C5.49437 1.73521 5.49437 1.67217 5.49437 1.62173C5.73395 1.4578 5.94831 1.24344 6.11224 0.991254Z" fill="white"/>
</svg>
