<svg width="8" height="8" viewBox="0 0 8 8" fill="none" xmlns="http://www.w3.org/2000/svg">
<path fill-rule="evenodd" clip-rule="evenodd" d="M4.07989 0.956543C2.1348 0.956543 0.569946 2.52139 0.569946 4.46649C0.569946 6.01671 1.57906 7.33294 2.96841 7.80093C3.1439 7.83018 3.2024 7.72781 3.2024 7.62544C3.2024 7.53769 3.2024 7.31832 3.2024 7.02582C2.22254 7.24519 2.0178 6.55783 2.0178 6.55783C1.85693 6.14834 1.62293 6.04596 1.62293 6.04596C1.30118 5.82659 1.65218 5.82659 1.65218 5.82659C2.00317 5.85584 2.1933 6.19221 2.1933 6.19221C2.50042 6.73333 3.01228 6.57245 3.21703 6.48471C3.24628 6.25071 3.33403 6.10446 3.4364 6.01671C2.66129 5.92896 1.8423 5.62184 1.8423 4.27636C1.8423 3.89612 1.97392 3.57438 2.20792 3.34038C2.17867 3.25263 2.04705 2.90164 2.23717 2.40439C2.23717 2.40439 2.52966 2.31665 3.2024 2.77001C3.48027 2.69689 3.78739 2.65302 4.07989 2.65302C4.37239 2.65302 4.67951 2.69689 4.95738 2.77001C5.63012 2.31665 5.92261 2.40439 5.92261 2.40439C6.11273 2.88701 5.99573 3.23801 5.95186 3.34038C6.17123 3.589 6.31748 3.89612 6.31748 4.27636C6.31748 5.62184 5.49849 5.91434 4.70876 6.00209C4.84038 6.10446 4.94275 6.32383 4.94275 6.64558C4.94275 7.11357 4.94275 7.49381 4.94275 7.61081C4.94275 7.69856 5.00125 7.81556 5.19137 7.78631C6.58073 7.33294 7.58983 6.01671 7.58983 4.46649C7.58983 2.52139 6.02498 0.956543 4.07989 0.956543Z" fill="white"/>
</svg>
